Coordinates
version=1
nRows=26
nColumns=22
inDegrees=yes

Units are S.I. units (second, meters, Newtons, ...)
If the header above contains a line with 'inDegrees', this indicates whether rotational values are in degrees (yes) or radians (no).

endheader
time	pelvis_tilt	pelvis_list	pelvis_rotation	pelvis_tx	pelvis_ty	pelvis_tz	hip_flexion_r	hip_adduction_r	hip_rotation_r	knee_angle_r	ankle_angle_r	subtalar_angle_r	hip_flexion_l	hip_adduction_l	hip_rotation_l	knee_angle_l	ankle_angle_l	subtalar_angle_l	lumbar_extension	lumbar_bending	lumbar_rotation
      1.85000000	     -3.49916516	     -3.51593825	    131.01675357	     -0.72429436	      1.04397378	      0.86790136	    -10.16887238	      1.72604262	     11.91487593	    -25.37981326	     17.18939846	     -6.36104925	     22.28774213	      1.34609912	     11.61234128	    -14.38527874	      4.78470860	      8.41805162	     -1.78971038	     -4.80417829	     -0.44788548
      1.86000000	     -3.69795917	     -3.64897408	    130.41807561	     -0.73337297	      1.04403194	      0.86094413	     -9.96078719	      1.31215910	     12.12865793	    -26.85627192	     16.18482171	     -5.23015529	     22.11144797	      1.89883252	     12.36691256	    -15.33089623	      3.91102327	      7.51192694	     -1.61273799	     -5.08169570	     -0.49146681
      1.87000000	     -3.92487402	     -3.78246708	    129.80545833	     -0.74239978	      1.04428456	      0.85388073	     -9.63337207	      0.89639503	     12.30212719	    -28.53415658	     14.93731239	     -3.99412355	     21.91011910	      2.45220415	     13.09249005	    -16.27200813	      3.15610113	      6.68735369	     -1.45414752	     -5.38383252	     -0.54570779
      1.88000000	     -4.18002396	     -3.92247920	    129.16740306	     -0.75128738	      1.04469307	      0.84673628	     -9.15311694	      0.47693463	     12.43210249	    -30.44302508	     13.42049559	     -2.67288205	     21.69964067	      2.99077737	     13.66422053	    -17.21050403	      2.62890527	      5.99825024	     -1.31549636	     -5.71819017	     -0.59880485
      1.89000000	     -4.45355513	     -4.05330788	    128.48350445	     -0.75992428	      1.04524935	      0.83954153	     -8.50605493	      0.07450842	     12.54942745	    -32.58889261	     11.59536800	     -1.28454435	     21.47006194	      3.47511772	     13.98938377	    -18.12587854	      2.37905816	      5.48659849	     -1.21400979	     -6.06549774	     -0.62762986
      1.90000000	     -4.74744646	     -4.17692782	    127.74606932	     -0.76823748	      1.04593927	      0.83235532	     -7.67852796	     -0.31278960	     12.66359710	    -34.96510426	      9.45035498	      0.12958436	     21.20192986	      3.89741863	     14.03083934	    -18.96999553	      2.41432002	      5.17911985	     -1.15898286	     -6.42468588	     -0.63709809
      1.91000000	     -5.07362615	     -4.31003028	    126.93650646	     -0.77614713	      1.04673632	      0.82521638	     -6.65360418	     -0.71338326	     12.76889967	    -37.55304505	      7.02558656	      1.52152666	     20.87432853	      4.26777983	     13.77231709	    -19.68458719	      2.69344319	      5.04852629	     -1.14663283	     -6.82302147	     -0.61110393
      1.92000000	     -5.43134958	     -4.44897457	    126.06690114	     -0.78364339	      1.04764403	      0.81819255	     -5.44424935	     -1.12901732	     12.85563889	    -40.29936715	      4.38196248	      2.86229009	     20.45756144	      4.59396424	     13.26684675	    -20.21124133	      3.13082018	      5.03476130	     -1.18508963	     -7.25238822	     -0.57055871
      1.93000000	     -5.83702038	     -4.60172622	    125.13881396	     -0.79071806	      1.04864374	      0.81134275	     -4.07200728	     -1.58265861	     12.93933819	    -43.14530601	      1.66544331	      4.09994935	     19.94903524	      4.90758883	     12.53266396	    -20.54548382	      3.66640625	      5.06884563	     -1.28027260	     -7.73170417	     -0.53059448
      1.94000000	     -6.27754412	     -4.75574611	    124.16392704	     -0.79741235	      1.04973425	      0.80466569	     -2.56081575	     -2.07453770	     12.97536284	    -46.02406220	     -0.92759947	      5.18979632	     19.32007536	      5.20169018	     11.60208141	    -20.63125510	      4.23316751	      5.09390093	     -1.42416419	     -8.23616227	     -0.51183147
      1.95000000	     -6.75250977	     -4.90001399	    123.16372069	     -0.80379141	      1.05092076	      0.79818058	     -0.96264715	     -2.59769636	     12.98440210	    -48.85348421	     -3.19356369	      6.08686056	     18.57648496	      5.49857378	     10.53556564	    -20.49920310	      4.78066385	      5.07120015	     -1.62173296	     -8.75407745	     -0.55624474
      1.96000000	     -7.26038361	     -5.00626086	    122.15436581	     -0.80992912	      1.05223920	      0.79187375	      0.66078184	     -3.14666315	     12.94547901	    -51.56139151	     -4.93632332	      6.64639526	     17.70442021	      5.80459831	      9.38391143	    -20.17042158	      5.26251284	      4.99960460	     -1.88975901	     -9.26380309	     -0.66840876
      1.97000000	     -7.70176635	     -5.09297889	    121.18700156	     -0.81590988	      1.05361406	      0.78576144	      2.34545751	     -3.63136337	     12.86615687	    -54.08904158	     -6.05788634	      7.16768111	     16.79074613	      6.07956251	      8.31289204	    -19.68503478	      5.68768603	      4.85676282	     -2.14322911	     -9.67997072	     -0.87605285
      1.98000000	     -8.13996070	     -5.10451561	    120.26309481	     -0.82179112	      1.05517221	      0.77975688	      3.95787746	     -4.08922738	     12.71425668	    -56.36883962	     -6.47240998	      7.21913857	     15.76969774	      6.35123442	      7.28764885	    -19.08664729	      6.02821785	      4.74292606	     -2.46793360	    -10.03119507	     -1.19556853
      1.99000000	     -8.49041245	     -5.07462878	    119.41171523	     -0.82759693	      1.05680801	      0.77387758	      5.55448581	     -4.45158663	     12.48824003	    -58.37864119	     -6.22098491	      7.01543186	     14.75171747	      6.57462075	      6.37747863	    -18.44765751	      6.32097233	      4.59359148	     -2.78141424	    -10.25890741	     -1.61144614
      2.00000000	     -8.74627751	     -4.99966006	    118.64355179	     -0.83332127	      1.05851786	      0.76809367	      7.11251385	     -4.70856452	     12.15686937	    -60.09252310	     -5.47240316	      6.27291308	     13.75410681	      6.73900618	      5.60546173	    -17.81080009	      6.56218032	      4.39106223	     -3.08622018	    -10.36230952	     -2.11439857
      2.01000000	     -8.91205079	     -4.86387934	    117.96955498	     -0.83899797	      1.06034214	      0.76234270	      8.58096544	     -4.85550366	     11.71560193	    -61.48451238	     -4.31808299	      5.30862384	     12.74394796	      6.83395456	      4.99295409	    -17.16084449	      6.76120058	      4.28916400	     -3.39646152	    -10.33972728	     -2.68160424
      2.02000000	     -8.98952384	     -4.68891436	    117.37798377	     -0.84457709	      1.06220718	      0.75662381	      9.98340063	     -4.90214601	     11.16702349	    -62.57298689	     -2.98869176	      4.21088576	     11.76097109	      6.85849377	      4.48819306	    -16.53934241	      6.95310329	      4.23815855	     -3.69777219	    -10.21565253	     -3.28611713
      2.03000000	     -8.98471697	     -4.48858744	    116.84306910	     -0.85001871	      1.06407593	      0.75089119	     11.32386546	     -4.85108570	     10.54298244	    -63.36804448	     -1.60982755	      3.09987190	     10.80284163	      6.81071318	      4.05943131	    -15.92826452	      7.11932900	      4.24083749	     -3.97588028	    -10.01073322	     -3.87252034
      2.04000000	     -8.91004089	     -4.25891670	    116.35881638	     -0.85529888	      1.06589668	      0.74516207	     12.59379089	     -4.70697702	      9.85771577	    -63.89257627	     -0.30269303	      2.10002456	      9.87838584	      6.69120014	      3.64347346	    -15.36446513	      7.35630205	      4.27678417	     -4.25117182	     -9.73495592	     -4.46069469
      2.05000000	     -8.75746803	     -4.00924462	    115.88455552	     -0.86035184	      1.06764739	      0.73937799	     13.80609106	     -4.44912473	      9.15986097	    -64.15952378	      0.86823847	      1.22576583	      8.97359166	      6.48599253	      3.23297871	    -14.80081337	      7.56382567	      4.35271113	     -4.50195415	     -9.39159644	     -4.96981211
      2.06000000	     -8.57471135	     -3.76694551	    115.40293799	     -0.86517704	      1.06925951	      0.73355419	     14.97741166	     -4.13921305	      8.47094666	    -64.20688481	      1.89518083	      0.57576214	      8.09304993	      6.25073981	      2.78687321	    -14.23759764	      7.77870133	      4.45012788	     -4.73012370	     -9.04223465	     -5.41341943
      2.07000000	     -8.37876271	     -3.53859502	    114.90289561	     -0.86976517	      1.07070774	      0.72769053	     16.10979801	     -3.79837069	      7.80134401	    -64.05319006	      2.78176283	      0.06096991	      7.22661887	      6.00546907	      2.32738755	    -13.66150270	      7.97524961	      4.58510627	     -4.93607949	     -8.70698017	     -5.79792247
      2.08000000	     -8.16804250	     -3.32896859	    114.38118563	     -0.87412671	      1.07193890	      0.72182110	     17.21498641	     -3.43089150	      7.15648295	    -63.71894321	      3.56682831	     -0.19360361	      6.40418566	      5.75073762	      1.80134984	    -13.11840523	      8.24895514	      4.69888439	     -5.12304545	     -8.37920428	     -6.14474489
      2.09000000	     -7.96482003	     -3.14628295	    113.84558350	     -0.87831955	      1.07295132	      0.71592922	     18.29068711	     -3.08089698	      6.51185200	    -63.22095348	      4.28717363	     -0.32064522	      5.60794789	      5.51827380	      1.26746222	    -12.58479479	      8.53338068	      4.82282396	     -5.28956937	     -8.08451339	     -6.45223618
      2.10000000	     -7.77419400	     -2.97868739	    113.29850830	     -0.88238085	      1.07377326	      0.70999489	     19.31579620	     -2.75824622	      5.85927655	    -62.55745237	      4.95879861	     -0.36791808	      4.82077933	      5.30953329	      0.72848930	    -12.05646799	      8.84596255	      4.98699454	     -5.44607439	     -7.81725019	     -6.73926969
